# xmcd
#
# Track frame offsets:
#	150
#	15976
#	26876
#	43504
#	60104
#	74341
#	97483
#	117783
#	133768
#	151379
#	172224
#	194734
#	219598
#	239129
#	254679
#
# Disc length: 3709 seconds
#
# Revision: 0
# Processed by: cddbd v1.5.2PL0 Copyright (c) Steve Scherf et al.
# Submitted via: EZCDAudioConverter 3.1.0.1
#
DISCID=e60e7b0f
DTITLE=Giorgia - Oronero - Live CD
DYEAR=1900
DGENRE=
TTITLE0=Giorgia con Marco Mengoni - Come neve
TTITLE1=Giorgia - Chiamami tu
TTITLE2=Giorgia - Credo (live)
TTITLE3=Giorgia - E' l'amore che conta (live)
TTITLE4=Giorgia - Vanità (live)
TTITLE5=Giorgia - Io fra tanti (live)
TTITLE6=Giorgia - Gocce di memoria (live)
TTITLE7=Giorgia - Scelgo ancora te (live)
TTITLE8=Giorgia - Non mi ami (live)
TTITLE9=Giorgia - Dimmi dove sei - Un amore da favola (live)
TTITLE10=Giorgia - Di sole e d'azzurro (live)
TTITLE11=Giorgia - Tu mi porti su (live)
TTITLE12=Giorgia - Quando una stella muore (live)
TTITLE13=Giorgia - Posso farcela (live)
TTITLE14=Giorgia - Oronero (live)
EXTD=
EXTT0=
EXTT1=
EXTT2=
EXTT3=
EXTT4=
EXTT5=
EXTT6=
EXTT7=
EXTT8=
EXTT9=
EXTT10=
EXTT11=
EXTT12=
EXTT13=
EXTT14=
PLAYORDER=
